<?xml version="1.0" encoding="UTF-8" standalone="no"?>
<!DOCTYPE svg PUBLIC "-//W3C//DTD SVG 1.1//EN" "http://www.w3.org/Graphics/SVG/1.1/DTD/svg11.dtd">
<svg xmlns="http://www.w3.org/2000/svg" version="1.1" viewBox="0.00 0.00 1448.00 1447.00">
<path d="
  M 1448.00 453.53
  L 1448.00 995.51
  Q 1445.27 1047.29 1441.01 1086.25
  Q 1435.79 1134.04 1419.19 1182.49
  Q 1402.92 1229.96 1373.24 1272.80
  Q 1303.72 1373.12 1189.01 1413.62
  C 1140.41 1430.78 1090.35 1438.99 1038.51 1441.98
  Q 1008.89 1443.69 981.25 1443.94
  Q 791.01 1445.64 600.75 1445.59
  Q 545.59 1445.58 477.75 1444.06
  C 403.37 1442.40 327.80 1435.91 258.25 1409.77
  Q 151.82 1369.75 85.50 1277.67
  C 62.02 1245.08 44.16 1207.35 32.30 1168.99
  C 17.90 1122.39 11.15 1074.94 8.64 1025.25
  C 3.64 926.20 3.27 823.78 3.86 723.25
  Q 4.34 643.02 4.49 562.74
  C 4.57 515.38 6.45 466.09 8.90 412.51
  Q 11.57 354.27 24.40 302.94
  Q 45.61 218.10 98.35 150.88
  C 140.09 97.69 196.70 58.80 261.28 35.06
  Q 322.83 12.42 385.93 7.61
  Q 400.36 6.51 418.00 5.78
  Q 493.64 2.65 547.50 1.55
  Q 597.25 0.54 676.00 0.35
  Q 836.61 -0.05 929.28 1.54
  Q 1004.38 2.82 1078.47 9.07
  C 1126.34 13.10 1174.31 24.96 1216.40 43.85
  C 1281.77 73.20 1339.21 120.80 1378.23 181.02
  C 1424.28 252.07 1442.71 336.41 1446.45 420.75
  Q 1447.17 437.14 1448.00 453.53
  Z
  M 138.82 1013.98
  C 139.71 1039.55 142.37 1065.41 146.83 1089.23
  Q 152.23 1118.06 160.52 1141.18
  Q 196.24 1240.81 293.96 1283.80
  C 329.62 1299.49 368.69 1307.15 407.25 1309.39
  Q 506.92 1315.18 606.75 1315.47
  Q 685.56 1315.69 754.76 1314.81
  Q 765.42 1314.67 774.76 1314.61
  Q 851.26 1314.14 927.75 1313.42
  Q 981.01 1312.93 1015.75 1311.47
  C 1058.11 1309.70 1098.66 1304.15 1139.01 1291.45
  Q 1198.81 1272.64 1242.79 1225.69
  C 1278.17 1187.93 1299.42 1138.04 1308.04 1087.10
  Q 1315.00 1045.93 1316.50 1000.25
  C 1318.14 950.27 1319.74 900.96 1319.59 851.40
  Q 1319.00 660.44 1316.99 471.62
  C 1316.49 423.82 1313.29 379.12 1302.19 334.24
  Q 1295.70 307.99 1285.77 285.59
  Q 1268.49 246.58 1236.85 214.29
  C 1190.92 167.41 1127.12 145.88 1061.42 138.67
  Q 1037.43 136.04 1010.50 134.97
  Q 914.24 131.17 842.25 131.01
  Q 745.26 130.81 646.25 130.66
  Q 539.07 130.50 432.01 135.29
  Q 392.15 137.07 354.83 144.44
  C 295.33 156.19 241.60 183.90 203.48 230.44
  Q 173.65 266.85 158.19 312.99
  C 148.60 341.64 143.31 372.98 141.36 403.51
  C 137.87 458.20 135.60 513.80 135.41 569.50
  Q 134.81 739.74 136.03 908.75
  C 136.28 943.36 137.56 978.21 138.82 1013.98
  Z"
/>
<path  d="
  M 1193.38 372.34
  C 1183.40 396.31 1162.17 414.49 1137.49 421.53
  C 1073.90 439.69 1012.72 381.49 1028.45 316.84
  C 1043.16 256.43 1115.22 230.78 1165.16 267.12
  C 1198.23 291.19 1209.04 334.75 1193.38 372.34
  Z"
/>
<path  d="
  M 1099.11 745.01
  C 1094.44 816.19 1070.24 884.19 1028.59 940.81
  Q 960.82 1032.96 854.38 1072.49
  Q 802.14 1091.89 742.25 1094.70
  Q 732.31 1095.17 722.25 1094.95
  Q 612.61 1092.62 522.42 1032.72
  C 424.06 967.40 360.46 857.49 355.99 738.80
  C 353.00 659.64 374.81 581.83 418.79 516.75
  Q 479.54 426.83 578.52 382.62
  C 633.65 357.99 693.49 349.26 752.97 352.78
  C 871.82 359.82 978.60 425.56 1042.03 525.21
  Q 1099.24 615.07 1099.66 725.05
  Q 1099.70 735.90 1099.11 745.01
  Z
  M 968.05 723.10
  A 240.40 240.40 0.0 0 0 727.65 482.70
  A 240.40 240.40 0.0 0 0 487.25 723.10
  A 240.40 240.40 0.0 0 0 727.65 963.50
  A 240.40 240.40 0.0 0 0 968.05 723.10
  Z"
/>
</svg>
