<?xml version="1.0" encoding="UTF-8" standalone="no"?>
<!DOCTYPE svg PUBLIC "-//W3C//DTD SVG 1.1//EN" "http://www.w3.org/Graphics/SVG/1.1/DTD/svg11.dtd">
<svg xmlns="http://www.w3.org/2000/svg" version="1.1" viewBox="0.00 0.00 800.00 800.00">
<path d="
  M 800.00 281.09
  L 800.00 519.06
  Q 799.50 524.81 799.32 530.59
  C 799.20 534.56 798.35 538.33 797.83 542.20
  Q 797.05 548.05 796.44 550.87
  Q 793.11 566.35 787.45 579.74
  Q 787.39 579.87 787.43 580.12
  A 1.15 1.14 -37.0 0 1 787.33 580.81
  Q 784.39 586.64 781.45 592.58
  C 781.38 592.73 781.37 593.01 781.41 593.17
  Q 781.55 593.71 781.04 593.94
  Q 780.55 594.16 780.48 594.70
  Q 780.42 595.21 780.15 595.66
  Q 778.48 598.48 776.85 601.31
  Q 768.03 616.56 755.89 629.29
  C 753.86 631.42 752.18 633.86 749.91 635.69
  C 746.14 638.73 742.98 642.41 739.14 645.35
  Q 734.42 648.96 729.77 652.44
  C 726.05 655.23 722.18 657.44 718.17 659.90
  Q 713.58 662.71 709.20 664.92
  Q 693.81 672.66 678.96 676.65
  Q 675.19 677.66 671.16 678.70
  Q 667.27 679.70 663.25 680.29
  Q 658.44 680.99 654.02 681.67
  Q 650.49 682.21 646.95 682.40
  C 641.09 682.71 635.36 683.01 629.52 683.01
  Q 398.61 683.00 167.86 683.00
  Q 163.80 683.00 159.58 682.76
  Q 155.76 682.54 152.27 682.32
  Q 144.60 681.84 132.24 679.48
  Q 129.88 679.03 127.38 678.31
  Q 125.08 677.64 122.55 677.06
  Q 118.94 676.23 115.61 675.08
  Q 111.01 673.49 106.53 671.87
  C 101.81 670.17 97.44 667.92 92.98 665.85
  Q 88.01 663.56 83.26 660.80
  Q 70.94 653.64 59.65 644.30
  Q 56.57 641.75 53.50 638.64
  C 51.62 636.74 49.27 635.38 47.60 633.27
  Q 45.74 630.91 43.71 628.86
  Q 38.98 624.11 35.21 618.94
  Q 33.05 615.99 30.66 612.88
  C 27.69 609.02 25.29 604.67 22.72 600.52
  Q 20.39 596.77 18.92 593.88
  Q 12.06 580.41 7.43 565.79
  Q 5.91 561.00 4.16 553.50
  Q 3.28 549.71 2.70 545.98
  Q 2.09 542.01 1.52 538.42
  Q 0.85 534.23 0.60 528.62
  Q 0.39 523.75 0.00 518.88
  L 0.00 280.99
  Q 0.40 276.42 0.58 271.83
  Q 0.79 266.73 1.41 262.69
  Q 2.09 258.27 2.75 253.88
  Q 3.34 249.92 4.39 245.55
  Q 7.67 231.96 12.57 219.98
  Q 15.06 213.90 18.35 207.97
  A 1.32 1.26 57.2 0 0 18.50 207.19
  Q 18.40 206.35 19.10 205.95
  Q 19.69 205.60 19.53 204.94
  Q 19.41 204.40 19.93 204.11
  A 0.76 0.76 0.0 0 0 20.25 203.79
  Q 23.01 198.95 26.15 193.82
  Q 28.60 189.82 31.15 186.45
  Q 33.98 182.73 36.87 178.87
  C 40.06 174.62 44.02 171.20 47.32 167.05
  C 49.06 164.87 51.38 163.37 53.37 161.46
  C 56.37 158.59 59.25 155.75 62.62 153.29
  Q 65.76 151.00 68.88 148.58
  Q 73.05 145.36 77.12 142.95
  C 80.96 140.67 84.75 138.24 88.69 136.14
  Q 96.47 132.00 104.05 129.12
  Q 106.45 128.22 108.81 127.35
  Q 112.59 125.96 116.24 124.73
  Q 119.93 123.49 123.82 122.59
  C 127.61 121.71 131.23 120.52 135.04 119.99
  Q 139.20 119.41 143.66 118.66
  Q 149.07 117.74 154.92 117.49
  C 159.99 117.27 164.94 117.00 170.04 117.00
  Q 397.84 117.00 625.65 117.00
  Q 633.62 117.00 638.85 117.18
  Q 645.62 117.41 651.98 118.02
  Q 654.74 118.29 663.65 119.78
  Q 667.85 120.47 671.87 121.50
  Q 676.00 122.56 680.00 123.59
  Q 682.67 124.27 685.22 125.20
  Q 687.80 126.15 690.24 126.98
  Q 699.41 130.07 709.07 135.30
  Q 709.54 135.56 710.08 135.52
  Q 710.23 135.51 710.37 135.51
  Q 710.74 135.51 710.87 135.86
  Q 711.17 136.66 712.02 136.53
  A 0.90 0.89 -26.1 0 1 712.80 136.79
  C 714.33 138.38 716.46 138.63 718.13 140.08
  C 719.57 141.33 721.41 141.79 722.95 142.96
  C 724.58 144.20 726.41 145.01 728.05 146.27
  Q 733.11 150.14 738.17 153.88
  C 742.16 156.85 745.38 160.63 749.23 163.72
  C 751.79 165.79 754.38 169.22 755.89 170.73
  Q 761.60 176.51 766.50 183.36
  Q 767.99 185.44 769.74 187.66
  C 772.56 191.23 774.79 195.41 777.14 199.23
  Q 779.47 203.03 781.37 206.74
  Q 787.53 218.78 791.76 231.78
  Q 795.15 242.19 796.42 249.13
  Q 797.57 255.44 798.50 261.68
  Q 799.15 266.02 799.39 271.38
  Q 799.62 276.23 800.00 281.09
  Z
  M 473.06 371.06
  Q 472.78 370.36 472.06 370.51
  Q 471.44 370.63 471.09 370.11
  Q 470.71 369.57 470.10 369.26
  Q 442.42 355.53 414.85 341.60
  Q 414.21 341.28 413.85 340.76
  Q 413.64 340.44 413.26 340.53
  Q 412.33 340.76 411.97 339.90
  A 0.66 0.66 0.0 0 0 411.20 339.51
  Q 410.36 339.73 410.00 338.95
  A 0.76 0.76 0.0 0 0 409.50 338.53
  Q 409.28 338.46 409.05 338.51
  Q 408.39 338.65 408.05 338.06
  Q 407.65 337.33 406.81 337.48
  A 0.67 0.67 0.0 0 1 406.08 337.12
  Q 405.69 336.34 404.76 336.48
  A 0.62 0.62 0.0 0 1 404.08 336.09
  Q 403.78 335.36 403.00 335.52
  Q 402.40 335.65 402.10 335.12
  L 401.95 334.87
  Q 401.64 334.33 401.03 334.47
  Q 400.28 334.65 399.99 333.96
  A 0.77 0.77 0.0 0 0 399.19 333.50
  Q 398.47 333.59 397.98 333.01
  Q 397.57 332.52 397.00 332.23
  L 341.83 304.64
  Q 341.32 304.39 341.00 303.93
  Q 340.58 303.32 339.91 303.55
  A 0.62 0.61 70.5 0 1 339.15 303.18
  Q 338.82 302.32 337.93 302.50
  Q 337.26 302.63 337.00 302.01
  Q 336.67 301.26 335.88 301.52
  A 0.61 0.61 0.0 0 1 335.18 301.26
  L 335.00 300.97
  Q 334.66 300.43 334.03 300.53
  Q 333.36 300.65 333.04 300.02
  Q 332.84 299.62 332.40 299.52
  Q 332.16 299.46 331.92 299.57
  A 0.56 0.55 -23.7 0 1 331.17 299.28
  Q 330.83 298.40 329.95 298.50
  Q 329.32 298.57 329.00 298.02
  Q 328.63 297.36 327.84 297.49
  Q 327.31 297.57 327.08 297.08
  Q 326.75 296.38 325.98 296.52
  Q 325.41 296.63 325.13 296.12
  Q 324.73 295.39 323.87 295.48
  Q 323.36 295.54 323.08 295.10
  Q 322.81 294.65 322.34 294.42
  Q 312.79 289.57 303.44 284.98
  Q 297.89 282.26 292.70 286.31
  Q 291.98 286.87 291.61 287.82
  C 291.01 289.36 290.24 290.28 290.24 292.06
  Q 290.26 399.65 290.24 508.06
  Q 290.24 509.96 291.05 511.63
  Q 292.19 513.97 294.68 515.53
  Q 294.77 515.59 294.86 515.53
  Q 294.98 515.45 295.13 515.45
  A 0.96 0.95 68.1 0 1 295.78 515.73
  C 297.04 516.97 300.53 516.63 302.07 515.93
  Q 317.13 509.03 332.52 501.43
  C 333.48 500.96 334.53 500.81 335.49 500.30
  Q 344.78 495.42 354.01 491.29
  C 360.31 488.47 366.31 485.20 372.64 482.35
  Q 379.91 479.07 386.64 475.69
  C 392.83 472.58 399.19 469.91 405.32 466.83
  Q 412.46 463.24 419.74 459.94
  C 425.88 457.15 431.83 453.95 437.95 451.20
  C 445.85 447.66 453.70 443.52 461.63 439.97
  C 469.08 436.63 476.00 432.85 483.35 429.55
  Q 489.18 426.94 494.99 424.04
  C 503.52 419.78 512.43 415.98 521.27 411.40
  C 523.86 410.06 526.22 407.64 526.40 404.73
  Q 526.67 400.23 524.24 397.63
  Q 522.67 395.95 519.10 394.20
  Q 503.93 386.79 489.56 379.47
  A 1.04 1.04 0.0 0 1 489.11 379.05
  Q 488.72 378.38 488.01 378.55
  Q 487.39 378.71 487.10 378.14
  L 486.95 377.84
  Q 486.66 377.28 486.07 377.50
  Q 485.34 377.76 485.09 377.05
  Q 484.87 376.43 484.22 376.49
  L 483.78 376.53
  Q 483.26 376.57 483.05 376.10
  Q 482.71 375.32 481.88 375.48
  A 0.85 0.85 0.0 0 1 481.62 375.48
  Q 481.14 375.41 481.09 375.11
  Q 480.97 374.40 480.26 374.54
  Q 479.37 374.71 478.99 373.95
  Q 478.73 373.42 478.15 373.53
  Q 477.35 373.69 477.01 372.96
  Q 476.75 372.39 476.14 372.53
  Q 475.35 372.70 475.01 371.97
  A 0.80 0.79 -13.3 0 0 474.24 371.50
  L 473.78 371.52
  Q 473.25 371.55 473.06 371.06
  Z"
/>
</svg>
